<?xml version="1.0" encoding="utf-8"?>
<!-- Generator: Adobe Illustrator 25.2.0, SVG Export Plug-In . SVG Version: 6.00 Build 0)  -->
<svg version="1.1" id="Layer_1" xmlns="http://www.w3.org/2000/svg" xmlns:xlink="http://www.w3.org/1999/xlink" x="0px" y="0px"
	 viewBox="0 0 3000 2000" style="enable-background:new 0 0 3000 2000;" xml:space="preserve">
<style type="text/css">
	.st0{fill:#FCFCFC;}
	.st1{fill:url(#SVGID_1_);}
	.st2{fill:url(#SVGID_2_);}
	.st3{fill:url(#SVGID_3_);}
	.st4{fill:url(#SVGID_4_);}
	.st5{fill:url(#SVGID_5_);}
	.st6{fill:url(#SVGID_6_);}
	.st7{fill:url(#SVGID_7_);}
	.st8{fill:url(#SVGID_8_);}
	.st9{fill:url(#SVGID_9_);}
	.st10{fill:url(#SVGID_10_);}
	.st11{fill:url(#SVGID_11_);}
	.st12{fill:url(#SVGID_12_);}
	.st13{fill:url(#SVGID_13_);}
	.st14{fill:url(#SVGID_14_);}
	.st15{fill:url(#SVGID_15_);}
	.st16{fill:url(#SVGID_16_);}
	.st17{fill:url(#SVGID_17_);}
	.st18{fill:url(#SVGID_18_);}
	.st19{fill:none;}
	.st20{fill:url(#SVGID_19_);}
	.st21{fill:url(#SVGID_20_);}
	.st22{fill:url(#SVGID_21_);}
	.st23{fill:url(#SVGID_22_);}
	.st24{fill:url(#SVGID_23_);}
	.st25{fill:url(#SVGID_24_);}
	.st26{fill:url(#SVGID_25_);}
	.st27{fill:url(#SVGID_26_);}
	.st28{fill:url(#SVGID_27_);}
	.st29{fill:url(#SVGID_28_);}
	.st30{fill:url(#SVGID_29_);}
</style>
<rect x="-88.32" y="-116.47" width="3417.5" height="2202.77"/>
<g>
	<g>
		<path class="st0" d="M1217.92,952.97h34.17l-16.23,104.46h-35.41l8.1-52.38l-32.9,36.11h-19.65l-21.8-35.96l-8.11,52.23h-35.41
			l16.23-104.46h31.52l31.31,54.32L1217.92,952.97z"/>
		<path class="st0" d="M1269.98,952.97h38.78l-16.23,104.46h-38.78L1269.98,952.97z"/>
		<path class="st0" d="M1352.93,1028.93h61.79l-4.63,28.5h-99.86l16.23-104.46h38.24L1352.93,1028.93z"/>
		<path class="st0" d="M1437.83,952.97h38.78l-16.23,104.46h-38.78L1437.83,952.97z"/>
		<path class="st0" d="M1606.21,952.97l-4.46,28.5h-40.02l-11.77,75.96h-38.24l11.77-75.96h-40.02l4.46-28.5H1606.21z"/>
		<path class="st0" d="M1674.09,1057.43l-4.43-16.27h-50.64l-9.38,16.27h-42.67l68.28-104.46h43.38l35.65,104.46H1674.09z
			 M1631.96,1018.93h31.52l-9.99-36.86L1631.96,1018.93z"/>
		<path class="st0" d="M1825.41,952.97c22.49,0,32.39,9.55,29.55,28.65l-2.05,14.18c-2.6,17.16-10.19,24.03-27.29,25.37l22,36.26
			h-38.78l-19.55-33.58h-22.84l-5.42,33.58h-38.24l16.23-104.46H1825.41z M1773.6,976.7l-3.63,24.18h34.7
			c7.26,0,9.46-1.79,10.37-7.91l1.33-8.06c0.9-6.12-1.51-8.21-8.77-8.21H1773.6z"/>
		<path class="st0" d="M1995.04,952.97l-59.75,66.26l-6.05,38.2h-38.24l6.06-38.05l-39.41-66.41h42.14l19.79,38.05l31.2-38.05
			H1995.04z"/>
	</g>
	<g>
		<linearGradient id="SVGID_1_" gradientUnits="userSpaceOnUse" x1="1221.6154" y1="1065.9905" x2="1221.6154" y2="1010.4776">
			<stop  offset="0.4812" style="stop-color:#A7A9AC"/>
			<stop  offset="1" style="stop-color:#D1D3D4;stop-opacity:0"/>
		</linearGradient>
		<polygon class="st1" points="1207.34,1012.94 1200.45,1057.43 1235.87,1057.43 1242.78,1012.94 		"/>
		<linearGradient id="SVGID_2_" gradientUnits="userSpaceOnUse" x1="1111.84" y1="1065.9905" x2="1111.84" y2="1010.4776">
			<stop  offset="0.4812" style="stop-color:#A7A9AC"/>
			<stop  offset="1" style="stop-color:#D1D3D4;stop-opacity:0"/>
		</linearGradient>
		<polygon class="st2" points="1097.59,1012.94 1090.68,1057.43 1126.09,1057.43 1133,1012.94 		"/>
		<linearGradient id="SVGID_3_" gradientUnits="userSpaceOnUse" x1="1170.1335" y1="1065.9905" x2="1170.1335" y2="1010.4776">
			<stop  offset="0.4812" style="stop-color:#A7A9AC"/>
			<stop  offset="1" style="stop-color:#D1D3D4;stop-opacity:0"/>
		</linearGradient>
		<polygon class="st3" points="1138.89,1012.94 1156.01,1041.16 1175.66,1041.16 1201.37,1012.94 		"/>
		<linearGradient id="SVGID_4_" gradientUnits="userSpaceOnUse" x1="1276.5939" y1="1065.9905" x2="1276.5939" y2="1010.4776">
			<stop  offset="0.4812" style="stop-color:#A7A9AC"/>
			<stop  offset="1" style="stop-color:#D1D3D4;stop-opacity:0"/>
		</linearGradient>
		<polygon class="st4" points="1260.66,1012.94 1253.75,1057.43 1292.53,1057.43 1299.44,1012.94 		"/>
		<linearGradient id="SVGID_5_" gradientUnits="userSpaceOnUse" x1="1362.4791" y1="1065.9905" x2="1362.4791" y2="1010.4776">
			<stop  offset="0.4812" style="stop-color:#A7A9AC"/>
			<stop  offset="1" style="stop-color:#D1D3D4;stop-opacity:0"/>
		</linearGradient>
		<polygon class="st5" points="1355.41,1012.94 1317.14,1012.94 1310.23,1057.43 1410.09,1057.43 1414.73,1028.93 1352.93,1028.93 
					"/>
		<linearGradient id="SVGID_6_" gradientUnits="userSpaceOnUse" x1="1444.4463" y1="1065.9905" x2="1444.4463" y2="1010.4776">
			<stop  offset="0.4812" style="stop-color:#A7A9AC"/>
			<stop  offset="1" style="stop-color:#D1D3D4;stop-opacity:0"/>
		</linearGradient>
		<polygon class="st6" points="1428.51,1012.94 1421.6,1057.43 1460.38,1057.43 1467.29,1012.94 		"/>
		<linearGradient id="SVGID_7_" gradientUnits="userSpaceOnUse" x1="1534.2944" y1="1065.9905" x2="1534.2944" y2="1010.4776">
			<stop  offset="0.4812" style="stop-color:#A7A9AC"/>
			<stop  offset="1" style="stop-color:#D1D3D4;stop-opacity:0"/>
		</linearGradient>
		<polygon class="st7" points="1518.62,1012.94 1511.73,1057.43 1549.97,1057.43 1556.86,1012.94 		"/>
		<linearGradient id="SVGID_8_" gradientUnits="userSpaceOnUse" x1="1640.6245" y1="1065.9905" x2="1640.6245" y2="1010.4776">
			<stop  offset="0.4812" style="stop-color:#A7A9AC"/>
			<stop  offset="1" style="stop-color:#D1D3D4;stop-opacity:0"/>
		</linearGradient>
		<polygon class="st8" points="1661.85,1012.94 1663.48,1018.93 1631.96,1018.93 1635.46,1012.94 1596.05,1012.94 1566.97,1057.43 
			1609.64,1057.43 1619.02,1041.16 1669.66,1041.16 1674.09,1057.43 1714.28,1057.43 1699.1,1012.94 		"/>
		<linearGradient id="SVGID_9_" gradientUnits="userSpaceOnUse" x1="1785.1936" y1="1065.9905" x2="1785.1936" y2="1010.4776">
			<stop  offset="0.4812" style="stop-color:#A7A9AC"/>
			<stop  offset="1" style="stop-color:#D1D3D4;stop-opacity:0"/>
		</linearGradient>
		<path class="st9" d="M1846.13,1012.94h-116.44l-6.91,44.49h38.24l5.42-33.58h22.84l19.55,33.58h38.78l-22-36.26
			C1835.15,1020.42,1841.72,1017.95,1846.13,1012.94z"/>
		<linearGradient id="SVGID_10_" gradientUnits="userSpaceOnUse" x1="1915.9725" y1="1065.9905" x2="1915.9725" y2="1010.4776">
			<stop  offset="0.4812" style="stop-color:#A7A9AC"/>
			<stop  offset="1" style="stop-color:#D1D3D4;stop-opacity:0"/>
		</linearGradient>
		<polygon class="st10" points="1893.23,1012.94 1897.05,1019.38 1890.99,1057.43 1929.23,1057.43 1935.28,1019.23 1940.95,1012.94 
					"/>
	</g>
	
		<linearGradient id="SVGID_11_" gradientUnits="userSpaceOnUse" x1="956.1359" y1="1089.8226" x2="1000.7047" y2="969.6218" gradientTransform="matrix(1 0 -0.1907 1 191.6651 0)">
		<stop  offset="0.3777" style="stop-color:#76AF03"/>
		<stop  offset="0.5782" style="stop-color:#CEF100"/>
		<stop  offset="0.8486" style="stop-color:#76AF03"/>
	</linearGradient>
	<path class="st11" d="M1069.52,1000.4l-64.31,1.34l-1.49-63.45l-42.6,64.36l-66.3,1.36l41.84,35.6l-42.75,64.62l70.7-40.86
		l56.58,48.14l-10.49-69.47L1069.52,1000.4z M968.87,1045.02l-28.37,16.38l17.16-25.92l-21.5-18.29l34.08-0.71l17.33-26.2
		l0.61,25.83l36.07-0.74l-31.94,22.6l4.67,30.95L968.87,1045.02z"/>
	
		<linearGradient id="SVGID_12_" gradientUnits="userSpaceOnUse" x1="982.4567" y1="1015.2923" x2="977.8047" y2="1049.0187" gradientTransform="matrix(1 0 -0.1907 1 191.6651 0)">
		<stop  offset="0.1739" style="stop-color:#76AF03"/>
		<stop  offset="0.2771" style="stop-color:#76AF03"/>
		<stop  offset="0.6397" style="stop-color:#CEF100"/>
		<stop  offset="0.9212" style="stop-color:#76AF03"/>
	</linearGradient>
	<polygon class="st12" points="992.31,1037.97 996.97,1068.92 968.87,1045.02 940.5,1061.4 957.66,1035.48 936.16,1017.19 
		970.24,1016.48 987.57,990.29 988.18,1016.12 1024.25,1015.37 	"/>
	<g>
		<linearGradient id="SVGID_13_" gradientUnits="userSpaceOnUse" x1="1305.4546" y1="1166.8149" x2="1321.3704" y2="1061.0886">
			<stop  offset="0.4279" style="stop-color:#76AF03"/>
			<stop  offset="0.7458" style="stop-color:#CEF100"/>
		</linearGradient>
		<path class="st13" d="M1337.5,1192.1l-3.79-15.99h-54.25l-11,15.99h-45.71l79.29-102.69h46.47l32.06,102.69H1337.5z
			 M1294.63,1154.25h33.76l-8.54-36.23L1294.63,1154.25z"/>
		<linearGradient id="SVGID_14_" gradientUnits="userSpaceOnUse" x1="1453.7578" y1="1189.1401" x2="1469.6736" y2="1083.4138">
			<stop  offset="0.4279" style="stop-color:#76AF03"/>
			<stop  offset="0.7458" style="stop-color:#CEF100"/>
		</linearGradient>
		<path class="st14" d="M1421.91,1192.1c-25.99,0-37.75-10.71-33.01-31.1l16.31-71.59h40.97l-15.17,66.02
			c-1.52,7.04,1.33,9.83,10.43,9.83h26.37c9.1,0,12.52-2.2,14.04-9.24l15.17-66.6H1538l-17.07,74.52
			c-4.74,20.39-16.88,28.17-42.87,28.17H1421.91z"/>
		<linearGradient id="SVGID_15_" gradientUnits="userSpaceOnUse" x1="1592.5167" y1="1210.0286" x2="1608.4325" y2="1104.3022">
			<stop  offset="0.4279" style="stop-color:#76AF03"/>
			<stop  offset="0.7458" style="stop-color:#CEF100"/>
		</linearGradient>
		<path class="st15" d="M1675.15,1089.41l-6.45,28.02h-42.87l-17.07,74.67h-40.97l17.07-74.67h-42.87l6.45-28.02H1675.15z"/>
		<linearGradient id="SVGID_16_" gradientUnits="userSpaceOnUse" x1="1728.2218" y1="1230.4574" x2="1744.1376" y2="1124.7311">
			<stop  offset="0.4279" style="stop-color:#76AF03"/>
			<stop  offset="0.7458" style="stop-color:#CEF100"/>
		</linearGradient>
		<path class="st16" d="M1700.94,1192.1c-25.99,0-37.75-10.71-33.01-31.1l9.86-43.42c4.74-20.39,16.88-28.17,42.87-28.17h61.84
			c25.99,0,37.75,10.71,33.01,31.1l-9.86,43.42c-4.74,20.39-16.88,28.17-42.87,28.17H1700.94z M1752.54,1165.25
			c9.1,0,12.33-2.2,13.85-9.24l7.02-29.93c1.52-7.04-1.33-9.83-10.43-9.83h-32.06c-9.1,0-12.33,2.2-13.85,9.24l-7.02,29.93
			c-1.52,7.04,1.33,9.83,10.43,9.83H1752.54z"/>
	</g>
	
		<linearGradient id="SVGID_17_" gradientUnits="userSpaceOnUse" x1="731.4224" y1="1130.3843" x2="1452.4724" y2="1265.4124" gradientTransform="matrix(1.0282 0.0282 -0.2974 0.9645 320.3241 4.4144)">
		<stop  offset="0.3777" style="stop-color:#76AF03"/>
		<stop  offset="0.5782" style="stop-color:#CEF100"/>
		<stop  offset="0.8486" style="stop-color:#76AF03"/>
	</linearGradient>
	<path class="st17" d="M1966.97,1232.46c-5.15,1.83-338.46,120.12-754.37,106.78c-112.96-3.63-223.61-17.24-310.71-44.47
		c-58.09-18.16-103.82-41.65-133.86-67.92c-53.21-46.53-26.66-106.71,62.06-146.44c-10.24,4.59-16.43,12.4-22.05,17.92
		c-6.51,6.4-11.83,12.96-15.92,19.62c-8.19,13.32-11.49,27.01-9.74,40.55c3.34,25.85,27.24,49.49,69.33,69.44
		c12.68,6.01,26.74,11.59,41.82,16.74c0.34,0.12,0.68,0.24,1.02,0.35c51.71,17.67,128.7,35.8,243.33,50.47
		C1137.88,1295.51,1534.34,1344.3,1966.97,1232.46z"/>
	
		<linearGradient id="SVGID_18_" gradientUnits="userSpaceOnUse" x1="917.2063" y1="1149.0739" x2="2053.3914" y2="1256.6254" gradientTransform="matrix(1.0133 0.024 -0.2787 0.9803 316.089 -20.0261)">
		<stop  offset="0" style="stop-color:#7FB603"/>
		<stop  offset="0.2542" style="stop-color:#C3E900"/>
		<stop  offset="0.6397" style="stop-color:#CEF100"/>
		<stop  offset="0.9212" style="stop-color:#76AF03"/>
	</linearGradient>
	<path class="st18" d="M1237.7,1261.18c-570.27-40.27-383.32-168.62-383.32-168.62c-137.08,92.45,115.47,148.9,115.47,148.9
		c42.14,10.53,87.49,18.06,133.85,23.71c79.6,9.7,162.38,14.18,245.87,14.78c0.83,0.01,1.65,0.01,2.48,0.02
		c45.68,0.28,92.32-0.11,138.31-2.87c0.07,0,0.15-0.01,0.22-0.01c8.99-0.43,17.98-0.91,26.96-1.44
		c45.71-2.71,91.39-6.55,136.77-11.6c40.18-4.47,80.12-9.89,119.62-16.32c34.51-5.62,68.67-12,102.3-19.19
		c28.71-6.14,57.04-12.86,84.82-20.2c22.8-6.02,45.24-12.46,67.18-19.36c16.78-5.27,33.28-10.81,49.37-16.67
		c10.68-3.88,21.18-7.9,31.39-12.12c4.49-1.86,8.96-3.74,13.25-5.72c0.13-0.06,0.3-0.18,0.46-0.22
		C1643.74,1291.97,1237.7,1261.18,1237.7,1261.18z"/>
	<g>
		<line class="st19" x1="1725.94" y1="736.78" x2="1725.93" y2="736.78"/>
		<path class="st19" d="M1923.61,713.25c-0.13,0-0.24-0.01-0.38-0.03"/>
		<line class="st19" x1="1924.01" y1="713.26" x2="1923.99" y2="713.26"/>
		<path class="st19" d="M1525.57,853.9c-0.03,0-0.06,0.01-0.09,0.02"/>
		<line class="st19" x1="1725.94" y1="736.78" x2="1725.93" y2="736.78"/>
		<path class="st19" d="M1720.42,737.54c-0.21,0-0.43,0-0.65,0.01"/>
		<path class="st19" d="M1680.62,834.89c-11,4.79-17.84,7.96-17.84,7.96"/>
		<linearGradient id="SVGID_19_" gradientUnits="userSpaceOnUse" x1="2062.5681" y1="702.2766" x2="1245.0204" y2="881.6176">
			<stop  offset="0.4073" style="stop-color:#052C74"/>
			<stop  offset="0.7944" style="stop-color:#42C6FF;stop-opacity:0.5"/>
			<stop  offset="0.9704" style="stop-color:#FFFFFF;stop-opacity:0"/>
		</linearGradient>
		<path class="st20" d="M1938.23,759.79c-0.12,0-0.25,0-0.38-0.01c-0.86,0-1.77-0.02-2.74-0.04c-0.13,0-0.2,0-0.2,0
			c-16.79-0.21-49.35,0.13-88.74,4.17c0,0-0.02,0-0.07,0.02c-0.13,0.02-0.26,0.03-0.39,0.04c-0.12,0.02-0.25,0.03-0.38,0.04
			c-0.09,0.02-0.18,0.02-0.27,0.03c-0.07,0.02-0.15,0.03-0.25,0.03c-0.23,0.03-0.51,0.07-0.81,0.09c-0.25,0.03-0.52,0.08-0.82,0.1
			c-0.15,0.02-0.31,0.04-0.48,0.06c-0.16,0.01-0.33,0.04-0.51,0.05c-10.97,1.38-43.29,5.68-80.47,13.44
			c-0.15,0.03-0.31,0.06-0.46,0.1c-8.01,1.67-16.24,3.5-24.53,5.51c0,0,0,0-0.01,0c-0.39,0.1-0.76,0.19-1.16,0.28
			c0.4-0.1,0.77-0.19,1.15-0.29c-6.11,0.18-11.89,0.37-17.41,0.52c-0.88,0.03-1.75,0.06-2.63,0.08c-1.48,0.04-2.92,0.08-4.36,0.13
			c-1.47,0.04-2.9,0.08-4.32,0.13c-0.13,0-0.25,0.02-0.38,0.02c-23.1,0.67-40.91,1.17-55.37,1.79c-0.06,0-0.12,0-0.16,0.02
			c-16.29,1.28-32.58,3.33-48.53,6.45c-28.05,5.49-55.13,14.85-82.08,24.1c-23.18,7.96-46.64,15.27-70.27,21.99
			c-0.46,0.14-0.9,0.27-1.36,0.39c-41.59,12.17-67.64,17.83-76.11,19.56c-0.04,0-0.07,0.01-0.11,0.03c-0.2,0.04-0.39,0.07-0.55,0.11
			c-0.67,0.17-1.34,0.33-2.01,0.48c0.23-0.07,0.46-0.15,0.68-0.23c-0.41,0.08-0.7,0.14-0.87,0.17c23.27-7.5,49.2-16.86,70.2-24.68
			c0.05-0.01,0.11-0.04,0.14-0.05c0.34-0.13,0.7-0.27,1.05-0.39c12.23-4.7,24.38-9.57,36.47-14.62c4.87-2.03,9.72-4.12,14.55-6.25
			c70.74-34.97,117.34-41.71,117.34-41.71c1.22-0.18,2.41-0.38,3.58-0.56c0.09-0.01,0.19-0.03,0.27-0.04
			c25.85-5.39,52.01-9.33,78.15-12.99c0.04-0.02,0.06-0.02,0.08-0.02c0.04,0,0.06-0.02,0.07-0.02c0.53-0.13,0.72-0.18,0.72-0.18
			c56.12-9.42,100.94-12.85,136.23-12.96c1.48-0.02,2.92-0.02,4.37-0.02c1.71,0,3.4,0.02,5.06,0.03c0.7,0,1.42,0.01,2.13,0.03
			c1.01,0.02,2.01,0.04,2.99,0.06c0.99,0.01,1.95,0.04,2.9,0.07c0.15,0,0.32,0.02,0.46,0.02c0.83,0.03,1.64,0.04,2.47,0.07
			c0.54,0.02,1.07,0.04,1.59,0.06c0.53,0.03,1.06,0.04,1.59,0.07c1.06,0.04,2.13,0.08,3.17,0.14c1.06,0.04,2.08,0.1,3.11,0.15
			c0.99,0.06,1.94,0.12,2.89,0.17c0.79,0.06,1.58,0.1,2.36,0.16c1.75,0.11,3.46,0.23,5.15,0.38c0.93,0.07,1.83,0.13,2.72,0.22
			c2.24,0.18,4.41,0.39,6.53,0.6c1.16,0.13,2.31,0.25,3.45,0.38c1.86,0.2,3.72,0.42,5.58,0.67c1.77,0.23,3.53,0.46,5.28,0.73
			c0.56,0.08,1.14,0.17,1.69,0.25c1.12,0.17,2.21,0.35,3.29,0.52c0.54,0.1,1.08,0.18,1.61,0.27c0.36,0.07,0.72,0.12,1.09,0.19
			c0.31,0.06,0.62,0.11,0.94,0.17c0.76,0.14,1.54,0.28,2.29,0.42c1.07,0.19,2.14,0.39,3.17,0.6c0.93,0.18,1.83,0.38,2.71,0.55
			c1.39,0.3,2.72,0.59,4.02,0.88c0.76,0.18,1.5,0.34,2.23,0.53c8.18,1.96,14.34,3.97,18.7,5.62c1.08,0.41,2.03,0.79,2.9,1.16
			c0.01,0,0.01,0,0.02,0C1938.2,759.78,1938.21,759.78,1938.23,759.79z"/>
		<linearGradient id="SVGID_20_" gradientUnits="userSpaceOnUse" x1="1757.8051" y1="782.8099" x2="1612.7943" y2="817.0259">
			<stop  offset="0.6257" style="stop-color:#2283C6"/>
			<stop  offset="1" style="stop-color:#052C74"/>
		</linearGradient>
		<path class="st21" d="M1734.01,784.09c-0.21,0.05-0.45,0.11-0.67,0.17c0,0,0,0-0.01,0c-12.47,3.08-24.97,6.52-37.02,10.36h-0.07
			c-7.19,2.28-14.16,4.71-20.88,7.27c-31.4,12.01-74.78,24.49-113.02,34.59C1603.25,819.32,1690.69,784.8,1734.01,784.09z"/>
		<g>
			
				<linearGradient id="SVGID_21_" gradientUnits="userSpaceOnUse" x1="2262.8208" y1="1082.8687" x2="2082.5239" y2="937.5131" gradientTransform="matrix(0.9646 0.2636 -0.2636 0.9646 332.8373 -480.7662)">
				<stop  offset="0" style="stop-color:#FFE40D"/>
				<stop  offset="0.4698" style="stop-color:#F2C300"/>
				<stop  offset="0.8453" style="stop-color:#F2C300;stop-opacity:0"/>
			</linearGradient>
			<path class="st22" d="M2233.49,1149.31c-26.89-92.04-172.85-121.05-172.85-121.05l57.16-64.52
				C2273.85,1027.15,2233.49,1149.31,2233.49,1149.31z"/>
			<linearGradient id="SVGID_22_" gradientUnits="userSpaceOnUse" x1="1696.3073" y1="901.2783" x2="2259.2805" y2="901.2783">
				<stop  offset="0" style="stop-color:#FFE40D"/>
				<stop  offset="0.8184" style="stop-color:#F2C300"/>
				<stop  offset="0.9927" style="stop-color:#F2C300;stop-opacity:0"/>
			</linearGradient>
			<path class="st23" d="M2259.28,880.13l-10.33,162.73c-3.05-14.87-7.26-28.87-12.47-42.05c-0.26-0.67-0.53-1.33-0.8-1.99
				c-0.27-0.67-0.54-1.33-0.81-1.99c-0.39-0.93-0.79-1.86-1.19-2.78c-0.45-1.06-0.92-2.11-1.39-3.16c-0.52-1.18-1.06-2.34-1.61-3.51
				c-0.62-1.33-1.26-2.66-1.91-3.99c-2.81-5.74-5.82-11.31-9.05-16.71c-0.67-1.13-1.35-2.27-2.05-3.39
				c-0.69-1.13-1.4-2.25-2.11-3.37c-0.72-1.13-1.43-2.23-2.18-3.34c-0.74-1.11-1.48-2.22-2.24-3.32c-0.76-1.11-1.53-2.21-2.31-3.3
				c-0.79-1.1-1.57-2.19-2.38-3.28c-0.8-1.09-1.62-2.18-2.45-3.25c-0.76-1.01-1.54-2.02-2.34-3.02c-0.9-1.14-1.82-2.28-2.75-3.41
				c-2.38-2.92-4.86-5.79-7.42-8.64c-1.63-1.83-3.29-3.63-4.98-5.39c-0.08-0.08-0.16-0.16-0.24-0.24c-0.88-0.93-1.77-1.86-2.69-2.78
				c-2.72-2.78-5.52-5.51-8.38-8.18c-0.7-0.66-1.4-1.3-2.14-1.96c-0.29-0.28-0.6-0.57-0.9-0.84c-0.52-0.48-1.04-0.94-1.57-1.41
				c-0.05-0.05-0.11-0.1-0.18-0.15c-0.49-0.45-1-0.9-1.51-1.34c-0.14-0.13-0.28-0.26-0.45-0.39c-0.69-0.62-1.4-1.22-2.1-1.83
				c-0.94-0.82-1.89-1.62-2.85-2.42c-3.14-2.63-6.35-5.2-9.65-7.73c-1.02-0.78-2.05-1.56-3.09-2.33c-0.7-0.54-1.43-1.08-2.17-1.61
				c-3.14-2.31-6.34-4.56-9.59-6.77c-0.75-0.52-1.5-1.02-2.27-1.53c-0.67-0.46-1.34-0.9-2.02-1.34c-1.1-0.73-2.21-1.45-3.32-2.16
				c-3.19-2.05-6.45-4.05-9.73-6.01c-1.53-0.91-3.06-1.81-4.6-2.71c-0.02-0.01-0.04-0.02-0.05-0.03c-1.19-0.68-2.37-1.35-3.57-2.02
				c-0.79-0.45-1.57-0.88-2.36-1.32c-3.38-1.88-6.8-3.7-10.27-5.48c-0.77-0.41-1.56-0.81-2.35-1.2c-0.43-0.23-0.87-0.44-1.3-0.66
				c-0.85-0.43-1.68-0.84-2.52-1.26c-0.46-0.23-0.92-0.45-1.37-0.68c-1.42-0.69-2.84-1.38-4.27-2.06c-0.01-0.01-0.01-0.01-0.02-0.02
				c-1.43-0.68-2.85-1.34-4.29-2c-2.72-1.26-5.46-2.48-8.23-3.69c-1.12-0.49-2.24-0.98-3.38-1.46c-7.14-3.06-14.41-5.96-21.79-8.71
				c-0.46-0.18-0.92-0.34-1.36-0.51c-3.48-1.28-6.97-2.53-10.5-3.75c-1.09-0.38-2.18-0.75-3.28-1.12c-0.41-0.14-0.83-0.28-1.24-0.42
				c-1.44-0.48-2.9-0.97-4.34-1.45c-0.42-0.13-0.86-0.28-1.29-0.42c-1.23-0.39-2.47-0.79-3.71-1.18c-1.14-0.36-2.28-0.72-3.42-1.08
				c-1.14-0.35-2.28-0.7-3.43-1.05c-1.14-0.35-2.28-0.69-3.43-1.03c-1.15-0.34-2.29-0.68-3.44-1.01c-1.73-0.51-3.48-1-5.22-1.49
				c-3.13-0.89-6.28-1.75-9.45-2.58c-1.59-0.42-3.17-0.83-4.77-1.24c-0.67-0.18-1.35-0.35-2.02-0.52c-0.92-0.23-1.83-0.47-2.75-0.69
				c-1.35-0.34-2.71-0.68-4.07-1c-1.36-0.33-2.72-0.66-4.09-0.98c-1.36-0.33-2.74-0.64-4.1-0.96c-2.27-0.53-4.53-1.03-6.8-1.53
				c-1.75-0.38-3.5-0.76-5.25-1.13c-1.51-0.33-3.03-0.64-4.54-0.95c-1.83-0.38-3.66-0.75-5.51-1.12c-0.68-0.14-1.37-0.28-2.07-0.41
				c-2.2-0.43-4.39-0.86-6.6-1.26c-1.87-0.36-3.73-0.7-5.6-1.03c-0.05-0.01-0.09-0.02-0.15-0.03c-0.74-0.13-1.47-0.27-2.2-0.39
				c-1.94-0.35-3.87-0.68-5.81-1.01c-1.36-0.23-2.74-0.47-4.1-0.68c-1.36-0.23-2.72-0.45-4.1-0.67c-0.79-0.13-1.57-0.26-2.37-0.38
				c-1.17-0.19-2.36-0.37-3.53-0.55c-2.14-0.33-4.27-0.65-6.42-0.96c-0.76-0.11-1.53-0.23-2.29-0.33c-0.7-0.1-1.41-0.2-2.1-0.29
				c-2.37-0.33-4.74-0.66-7.13-0.98c-0.09-0.02-0.2-0.03-0.29-0.04c-2.28-0.3-4.56-0.59-6.85-0.88c-1.57-0.2-3.16-0.39-4.73-0.58
				c-2.96-0.36-5.92-0.7-8.88-1.03c-1.61-0.18-3.21-0.35-4.81-0.52c-0.76-0.09-1.54-0.17-2.31-0.24c-0.55-0.06-1.1-0.11-1.64-0.17
				c-1.91-0.2-3.83-0.39-5.75-0.58c-0.87-0.08-1.74-0.17-2.61-0.24c-1.62-0.16-3.24-0.31-4.86-0.44c-0.82-0.08-1.66-0.15-2.48-0.22
				c-0.29-0.03-0.59-0.06-0.88-0.08c-1.6-0.14-3.17-0.28-4.74-0.4c-0.34-0.03-0.67-0.06-1.01-0.08c-1.7-0.13-3.39-0.27-5.1-0.39
				c-0.41-0.03-0.82-0.07-1.23-0.09c-0.75-0.06-1.49-0.11-2.24-0.17c-2.22-0.17-4.44-0.32-6.66-0.47c-1.02-0.07-2.03-0.13-3.04-0.19
				c-0.5-0.03-1.01-0.07-1.51-0.09c-1.48-0.09-2.96-0.18-4.43-0.27c-1.47-0.09-2.94-0.18-4.4-0.25c-1.46-0.08-2.91-0.16-4.37-0.23
				c-1.46-0.08-2.9-0.15-4.33-0.22c-1.44-0.07-2.88-0.13-4.31-0.19c-1.43-0.06-2.85-0.12-4.27-0.18c-1.41-0.06-2.82-0.12-4.23-0.16
				c-1.41-0.05-2.81-0.1-4.2-0.14c-1.57-0.06-3.13-0.11-4.71-0.15c-2.82-0.08-5.65-0.15-8.47-0.21c-0.36-0.01-0.72-0.02-1.08-0.03
				c-2.08-0.04-4.13-0.08-6.16-0.11c-0.01-0.01-0.02-0.01-0.04,0c-0.95-0.02-1.91-0.03-2.86-0.04c-2.14-0.03-4.26-0.06-6.39-0.07
				c-0.83-0.01-1.64-0.02-2.47-0.02c-1.28-0.02-2.55-0.02-3.83-0.02c-2.63-0.01-5.22-0.01-7.78,0c-1.31,0-2.63,0-3.95,0.02
				c-0.66,0-1.3,0.01-1.95,0.02c-0.65,0-1.29,0-1.94,0.02c-2.57,0.03-5.11,0.06-7.61,0.09c-1.61,0.03-3.23,0.05-4.84,0.08
				c-3.21,0.06-6.4,0.13-9.6,0.23c-3.38,0.09-6.75,0.19-10.13,0.32c-1.71,0.06-3.43,0.13-5.13,0.19c-2.45,0.09-4.91,0.2-7.36,0.32
				c12.05-3.84,24.55-7.29,37.02-10.36c0.01,0,0.01,0,0.01,0c0.22-0.06,0.46-0.12,0.67-0.17c0.13-0.04,0.26-0.08,0.39-0.1
				c0.4-0.1,0.8-0.19,1.17-0.28c0.4-0.09,0.77-0.18,1.16-0.28c0.01,0,0.01,0,0.01,0c8.29-2.01,16.52-3.84,24.53-5.51
				c0.15-0.04,0.31-0.07,0.46-0.1c37.18-7.76,69.51-12.07,80.47-13.44c0.18-0.01,0.34-0.04,0.51-0.05c0.18-0.02,0.33-0.04,0.48-0.06
				c0.31-0.02,0.58-0.07,0.82-0.1c0.31-0.02,0.58-0.07,0.81-0.09c0.09,0,0.18-0.02,0.25-0.03c0.09-0.01,0.18-0.01,0.27-0.03
				c0.13-0.02,0.26-0.02,0.38-0.04c0.13-0.02,0.26-0.03,0.39-0.04c0.05-0.02,0.07-0.02,0.07-0.02c39.39-4.04,71.95-4.38,88.74-4.17
				c0,0,0.07,0,0.2,0c0.96,0.03,1.88,0.04,2.74,0.04c0.13,0.01,0.26,0.01,0.38,0.01c-0.01-0.01-0.02-0.01-0.04-0.03
				c22.9,0.38,159.72,5.39,262.61,71.01c6.56,4.19,12.99,8.63,19.22,13.32l0.02,0.02C2234.15,854.73,2247.4,866.67,2259.28,880.13z"
				/>
			<linearGradient id="SVGID_23_" gradientUnits="userSpaceOnUse" x1="1753.9635" y1="907.3417" x2="2084.3391" y2="937.7711">
				<stop  offset="0.0184" style="stop-color:#CFA700"/>
				<stop  offset="0.5771" style="stop-color:#FCFB4F"/>
				<stop  offset="1" style="stop-color:#F2C300"/>
			</linearGradient>
			<path class="st24" d="M2228.93,1030.53c-15.34-27.42-36.52-49.7-60.48-70.05c-19.3-16.39-40.27-30.87-62.54-43.12
				c-46.88-25.8-98.29-43.09-150.93-53.36c-63.22-12.31-127.99-15.07-192.29-13.82c-32.12,0.63-64.21,2.28-96.27,4.33
				c-5.88,0.38-11.7,0.88-17.5,1.49c-31.52,3.28-62.46,10.3-93.87,14.33c-30.84,3.98-82.68,13.36-115.36,11.35
				c1.5,0.07,3.04,0.11,4.63,0.13c34.22,0.29,85.44-13.57,115.69-19.09c33.42-6.09,66.85-12.06,100.7-15.39
				c77.28-7.62,156.81-12.59,234.37-6.36c86.58,6.96,171.74,23.65,246.96,76.52c19.8,14.23,38.66,31.44,53.11,50.98
				c7.12,9.63,13.21,19.94,18.78,30.48c5.04,9.56,10.36,18.13,14.14,28.27C2228.24,1028.04,2228.75,1029.72,2228.93,1030.53z"/>
			<linearGradient id="SVGID_24_" gradientUnits="userSpaceOnUse" x1="1737.7498" y1="995.7864" x2="1974.3247" y2="692.5706">
				<stop  offset="0.2771" style="stop-color:#C18E01"/>
				<stop  offset="0.8765" style="stop-color:#FAEB00;stop-opacity:0.8"/>
			</linearGradient>
			<path class="st25" d="M2236.48,1000.82c-0.27-0.67-0.53-1.33-0.8-1.99s-0.54-1.33-0.81-1.99c-0.39-0.93-0.79-1.86-1.19-2.78
				c-0.45-1.06-0.92-2.11-1.39-3.16c-0.53-1.17-1.06-2.34-1.61-3.51c-0.62-1.33-1.26-2.66-1.91-3.99
				c-2.77-5.64-5.78-11.21-9.05-16.71c-0.67-1.13-1.36-2.26-2.05-3.39s-1.4-2.25-2.11-3.37c-0.72-1.12-1.44-2.23-2.18-3.34
				s-1.48-2.22-2.24-3.32c-0.76-1.11-1.54-2.21-2.31-3.3c-0.79-1.09-1.58-2.18-2.38-3.28c-0.81-1.08-1.62-2.17-2.45-3.25
				c-0.76-1.01-1.55-2.02-2.34-3.02c-0.9-1.14-1.82-2.28-2.75-3.41c-2.38-2.92-4.86-5.79-7.42-8.64c-1.63-1.81-3.29-3.61-4.98-5.39
				c-0.08-0.08-0.16-0.16-0.24-0.24c-0.89-0.93-1.78-1.86-2.69-2.78c-2.71-2.77-5.51-5.49-8.38-8.18c-0.7-0.66-1.41-1.31-2.14-1.96
				c-0.29-0.28-0.6-0.57-0.9-0.84c-0.53-0.48-1.04-0.94-1.57-1.41c-0.05-0.05-0.11-0.1-0.18-0.15c-0.49-0.45-1-0.9-1.51-1.34
				c-0.14-0.13-0.28-0.26-0.45-0.39c-0.68-0.61-1.39-1.23-2.1-1.83c-0.94-0.82-1.89-1.62-2.85-2.42c-3.14-2.63-6.35-5.2-9.65-7.73
				c-1.02-0.78-2.05-1.56-3.09-2.33c-0.72-0.54-1.44-1.08-2.17-1.61c-3.14-2.31-6.34-4.56-9.59-6.77c-0.75-0.52-1.5-1.02-2.27-1.53
				c-0.67-0.46-1.34-0.9-2.02-1.34c-1.1-0.73-2.21-1.45-3.32-2.16c-3.19-2.05-6.45-4.05-9.73-6.01c-1.53-0.91-3.06-1.81-4.6-2.71
				c-0.02-0.01-0.04-0.02-0.05-0.03c-1.19-0.68-2.37-1.35-3.57-2.02c-0.77-0.45-1.56-0.88-2.36-1.32c-3.38-1.88-6.8-3.7-10.27-5.48
				c-0.33-0.18-0.67-0.35-1.01-0.53c-0.45-0.23-0.89-0.45-1.34-0.68c-0.43-0.23-0.87-0.44-1.3-0.66c-0.85-0.43-1.68-0.84-2.52-1.26
				c-0.46-0.23-0.92-0.45-1.37-0.68c-1.42-0.69-2.84-1.38-4.27-2.06c-0.01-0.01-0.01-0.01-0.02-0.02c-1.43-0.68-2.85-1.34-4.29-2
				c-2.72-1.26-5.46-2.48-8.23-3.69c-1.12-0.49-2.24-0.98-3.38-1.46c-7.14-3.06-14.41-5.96-21.79-8.71
				c-0.46-0.18-0.92-0.34-1.36-0.51c-3.48-1.28-6.97-2.53-10.5-3.75c-1.09-0.38-2.18-0.75-3.28-1.12c-0.41-0.14-0.83-0.28-1.24-0.42
				c-1.44-0.48-2.9-0.97-4.34-1.45c-0.42-0.13-0.86-0.28-1.29-0.42c-1.23-0.39-2.47-0.79-3.71-1.18c-1.14-0.36-2.28-0.72-3.42-1.08
				c-1.14-0.35-2.28-0.7-3.43-1.05c-1.14-0.35-2.28-0.69-3.43-1.03c-1.15-0.34-2.29-0.68-3.44-1.01c-1.73-0.51-3.48-1-5.22-1.49
				c-3.13-0.89-6.28-1.75-9.45-2.58c-1.59-0.42-3.17-0.83-4.77-1.24c-0.67-0.18-1.35-0.35-2.02-0.52c-0.92-0.23-1.83-0.47-2.75-0.69
				c-1.35-0.34-2.71-0.68-4.07-1c-1.36-0.33-2.72-0.66-4.09-0.98c-1.36-0.33-2.72-0.64-4.1-0.96c-2.27-0.53-4.53-1.03-6.8-1.53
				c-1.75-0.38-3.5-0.76-5.25-1.13c-1.51-0.33-3.03-0.64-4.54-0.95c-1.83-0.38-3.66-0.75-5.51-1.12c-0.69-0.14-1.37-0.28-2.07-0.41
				c-2.2-0.43-4.39-0.86-6.6-1.26c-1.87-0.36-3.73-0.7-5.6-1.03c-0.05-0.01-0.09-0.02-0.15-0.03c-0.73-0.13-1.47-0.27-2.2-0.39
				c-1.94-0.35-3.87-0.68-5.81-1.01c-1.36-0.23-2.74-0.46-4.1-0.68s-2.74-0.45-4.1-0.67c-0.79-0.13-1.57-0.26-2.37-0.38
				c-1.17-0.19-2.36-0.37-3.53-0.55c-2.14-0.33-4.27-0.65-6.42-0.96c-0.76-0.11-1.53-0.23-2.29-0.33c-0.7-0.1-1.41-0.2-2.1-0.29
				c-2.37-0.33-4.74-0.66-7.13-0.98c-0.09-0.02-0.2-0.03-0.29-0.04c-2.28-0.3-4.56-0.59-6.85-0.88c-1.57-0.2-3.16-0.39-4.73-0.58
				c-2.96-0.36-5.92-0.7-8.88-1.03c-1.6-0.18-3.21-0.35-4.81-0.52c-0.76-0.09-1.54-0.17-2.31-0.24c-0.55-0.06-1.1-0.11-1.64-0.17
				c-1.91-0.2-3.83-0.39-5.75-0.58c-0.87-0.08-1.74-0.17-2.61-0.24c-1.62-0.16-3.24-0.31-4.86-0.44c-0.82-0.08-1.66-0.15-2.48-0.22
				c-0.29-0.03-0.59-0.06-0.88-0.08c-1.57-0.14-3.16-0.28-4.74-0.4c-0.34-0.03-0.67-0.06-1.01-0.08c-1.7-0.13-3.39-0.27-5.1-0.39
				c-0.41-0.03-0.82-0.07-1.23-0.09c-0.75-0.06-1.49-0.11-2.24-0.17c-2.22-0.17-4.44-0.32-6.66-0.47c-1.02-0.07-2.03-0.13-3.04-0.19
				c-0.5-0.03-1.01-0.07-1.51-0.09c-1.48-0.09-2.96-0.18-4.43-0.27c-1.47-0.09-2.94-0.18-4.4-0.25c-1.46-0.08-2.91-0.16-4.37-0.23
				c-1.46-0.08-2.9-0.15-4.33-0.22c-1.44-0.07-2.88-0.13-4.31-0.19c-1.43-0.06-2.85-0.12-4.27-0.18c-1.41-0.06-2.82-0.12-4.23-0.16
				c-1.41-0.05-2.81-0.1-4.2-0.14c-1.57-0.06-3.13-0.11-4.71-0.15c-2.82-0.08-5.65-0.15-8.47-0.21c-0.36-0.01-0.72-0.02-1.08-0.03
				c-2.05-0.04-4.11-0.08-6.16-0.11c-0.01-0.01-0.02-0.01-0.04,0c-0.95-0.02-1.91-0.03-2.86-0.04c-2.14-0.03-4.26-0.06-6.39-0.07
				c-0.83-0.01-1.64-0.02-2.47-0.02c-1.28-0.02-2.55-0.02-3.83-0.02c-2.63-0.01-5.22-0.01-7.78,0c-1.31,0-2.63,0-3.95,0.02
				c-0.66,0-1.3,0.01-1.95,0.02c-0.65,0-1.29,0-1.94,0.02c-1.71,0.01-3.42,0.03-5.12,0.05c-0.83,0.01-1.66,0.03-2.49,0.04
				c-1.61,0.03-3.23,0.05-4.84,0.08c-3.21,0.06-6.4,0.13-9.6,0.23c-3.38,0.09-6.75,0.19-10.13,0.32c-1.71,0.06-3.43,0.13-5.13,0.19
				c-2.45,0.09-4.91,0.2-7.36,0.32h-0.07c-7.19,2.28-14.16,4.71-20.88,7.27c-31.4,12.01-74.78,24.49-113.02,34.59
				c-0.73,0.19-1.46,0.38-2.18,0.58c-2.91,0.77-5.79,1.52-8.62,2.25c-2.13,0.55-4.23,1.09-6.31,1.63c-2.77,0.71-5.49,1.4-8.17,2.08
				c-2.01,0.5-3.98,1-5.92,1.49c-2.18,0.55-4.32,1.08-6.42,1.6c-0.7,0.18-1.4,0.35-2.08,0.52c-3.49,0.87-6.85,1.69-10.04,2.47
				c-1.21,0.29-2.41,0.58-3.57,0.87c-0.88,0.21-1.74,0.42-2.58,0.63c-0.92,0.23-1.81,0.44-2.69,0.65c-0.56,0.13-1.12,0.27-1.67,0.4
				c-0.55,0.13-1.09,0.27-1.63,0.39c-1.43,0.34-2.81,0.67-4.12,0.98c-0.88,0.21-1.74,0.42-2.57,0.61c-0.83,0.19-1.63,0.38-2.41,0.57
				c-0.39,0.09-0.78,0.18-1.15,0.27c-1.13,0.27-2.18,0.52-3.18,0.75c-0.34,0.08-0.67,0.15-0.99,0.23c-0.65,0.15-1.24,0.29-1.82,0.43
				c-0.87,0.2-1.68,0.39-2.41,0.56c-0.23,0.06-0.48,0.11-0.7,0.17c-0.29,0.07-0.59,0.12-0.85,0.19c-0.22,0.05-0.43,0.1-0.63,0.14
				c-0.31,0.08-0.6,0.14-0.86,0.2c-0.16,0.04-0.32,0.08-0.46,0.11c-0.29,0.07-0.55,0.13-0.77,0.18c-0.11,0.03-0.21,0.04-0.29,0.07
				c-0.19,0.04-0.34,0.08-0.45,0.1c-0.06,0.02-0.11,0.03-0.14,0.03c-0.08,0.02-0.12,0.03-0.12,0.03c-2.04,0.42-4.09,0.83-6.13,1.23
				c-127.96,25.68-203.23,32.73-227.32,34.75l585.68-3.75c0,0,166.52-1.33,272.5,43.55c124.18,52.58,145.32,146.36,145.32,146.36
				c0.35-5.47,0.7-10.94,1.04-16.41C2249,1042.14,2244.45,1021.18,2236.48,1000.82z M2168.46,960.48
				c-19.3-16.39-40.27-30.88-62.53-43.12c-46.88-25.8-98.3-43.09-150.93-53.36c-63.22-12.32-127.99-15.07-192.29-13.82
				c-32.12,0.63-64.21,2.28-96.28,4.33c-5.87,0.38-11.69,0.88-17.49,1.49c-31.53,3.29-62.46,10.3-93.87,14.33
				c-30.84,3.98-82.68,13.35-115.36,11.35c1.5,0.08,3.03,0.12,4.63,0.13c34.21,0.29,85.44-13.57,115.69-19.09
				c33.42-6.1,66.84-12.07,100.69-15.39c77.28-7.62,156.81-12.59,234.38-6.35c86.57,6.95,171.73,23.65,246.96,76.52
				c19.8,14.23,38.66,31.45,53.11,50.98c7.13,9.63,13.22,19.94,18.79,30.49c5.04,9.56,10.36,18.13,14.14,28.27
				c0.16,0.81,0.68,2.49,0.86,3.3C2213.59,1003.11,2192.41,980.83,2168.46,960.48z"/>
			<linearGradient id="SVGID_25_" gradientUnits="userSpaceOnUse" x1="1531.9137" y1="736.4167" x2="2236.4136" y2="753.8118">
				<stop  offset="0.4693" style="stop-color:#188EE4"/>
				<stop  offset="0.8095" style="stop-color:#2FB8FA;stop-opacity:0.5"/>
				<stop  offset="1" style="stop-color:#0463B7;stop-opacity:0"/>
			</linearGradient>
			<path class="st26" d="M2070.12,671.24c-59.28-10.52-119.7-13.9-179.83-9.92c-77.32,5.13-154.07,20.38-227.47,44.73
				c-52.88,17.53-104.29,38.55-155.05,61.15c-0.01,0-0.01,0.01-0.03,0.01c-10.02,4.45-20,8.99-29.96,13.55l-0.21,0.07l-6.46,3.01
				c-4.61,2.11-9.23,4.22-13.82,6.36c0.14-0.06,0.28-0.1,0.43-0.15l-14.58,6.75c-10.23,4.79-20.48,9.6-30.73,14.4
				c-0.07,0.03-0.11,0.04-0.11,0.04l-18.91,8.75c29.72-12.16,57.77-23.43,63.76-25.84c0.03-0.01,0.06-0.03,0.09-0.03
				c0.14-0.06,0.27-0.11,0.38-0.17c0.24-0.08,0.41-0.15,0.52-0.21c0.13-0.04,0.18-0.07,0.18-0.07c0.88-0.35,1.75-0.68,2.64-1.02
				c0.1-0.06,0.21-0.1,0.31-0.14c11.14-4.29,22.65-8.68,34.36-13.05c43.19-16.17,88.51-32.04,122.61-41.59
				c2.21-0.63,4.46-1.22,6.68-1.82c78.26-20.8,158.17-34.52,238.81-35.7c5.45-0.07,10.89-0.1,16.35-0.07c0.14,0.01,0.28,0.01,0.41,0
				c69.18,0.43,139.79,10,204.4,37.44c44.3,18.83,86.15,46.69,117.53,85.74l20.24-90.06
				C2135.35,681.54,2070.12,671.24,2070.12,671.24z"/>
			<linearGradient id="SVGID_26_" gradientUnits="userSpaceOnUse" x1="891.9773" y1="637.8987" x2="2109.9573" y2="948.1935">
				<stop  offset="0.6704" style="stop-color:#022774"/>
				<stop  offset="0.9078" style="stop-color:#004099;stop-opacity:0.5"/>
				<stop  offset="1" style="stop-color:#0463B7;stop-opacity:0"/>
			</linearGradient>
			<path class="st27" d="M2202.37,823.75l-0.05,0.21l-0.2,0.9l-1.33,5.92c-102.89-65.62-239.71-70.64-262.61-71.01
				c-0.01,0-0.01,0-0.02,0c-0.87-0.37-1.82-0.75-2.9-1.16c-4.37-1.65-10.52-3.66-18.7-5.62c-0.73-0.18-1.47-0.35-2.23-0.53
				c-1.29-0.29-2.63-0.58-4.02-0.88c-0.88-0.18-1.78-0.38-2.71-0.55c-1.03-0.21-2.1-0.41-3.17-0.6c-0.75-0.14-1.53-0.28-2.29-0.42
				c-0.32-0.06-0.63-0.11-0.94-0.17c-0.38-0.07-0.73-0.13-1.09-0.19c-0.53-0.08-1.07-0.17-1.61-0.27c-1.08-0.17-2.17-0.35-3.29-0.52
				c-0.55-0.08-1.13-0.17-1.69-0.25c-1.75-0.27-3.51-0.5-5.28-0.73c-1.86-0.25-3.72-0.47-5.58-0.67c-1.14-0.13-2.29-0.25-3.45-0.38
				c-2.11-0.21-4.29-0.42-6.53-0.6c-0.89-0.08-1.8-0.15-2.72-0.22c-1.69-0.14-3.41-0.27-5.15-0.38c-0.77-0.06-1.57-0.1-2.36-0.16
				c-0.95-0.05-1.9-0.11-2.89-0.17c-1.03-0.05-2.05-0.11-3.11-0.15c-1.04-0.06-2.11-0.1-3.17-0.14c-0.53-0.02-1.06-0.04-1.59-0.07
				c-0.52-0.02-1.05-0.04-1.59-0.06c-0.82-0.03-1.63-0.04-2.47-0.07c-0.14,0-0.31-0.02-0.46-0.02c-0.95-0.03-1.91-0.06-2.9-0.07
				c-0.99-0.02-1.98-0.04-2.99-0.06c-0.7-0.02-1.42-0.03-2.13-0.03c-1.66-0.02-3.35-0.03-5.06-0.03c-1.44,0-2.89,0-4.37,0.02
				c-35.29,0.11-80.11,3.54-136.23,12.96c0,0-0.19,0.05-0.72,0.18c-0.01,0-0.04,0.02-0.07,0.02c-0.02,0-0.05,0-0.08,0.02
				c-26.14,3.66-52.3,7.6-78.15,12.99c-0.08,0.02-0.18,0.03-0.27,0.04c-1.17,0.18-2.36,0.38-3.58,0.56c0,0-46.6,6.75-117.34,41.71
				c-4.83,2.13-9.67,4.21-14.55,6.25c-12.09,5.05-24.23,9.92-36.47,14.62c-0.34,0.13-0.7,0.27-1.05,0.39
				c-0.04,0.01-0.09,0.04-0.14,0.05c-21.01,7.82-46.93,17.18-70.2,24.68c0.16-0.03,0.46-0.08,0.87-0.17
				c-0.22,0.08-0.45,0.16-0.68,0.23c0.67-0.15,1.34-0.31,2.01-0.48c0.16-0.04,0.35-0.07,0.55-0.11c0.04-0.02,0.07-0.03,0.11-0.03
				c8.47-1.73,34.52-7.39,76.11-19.56c0.46-0.13,0.9-0.25,1.36-0.39c23.64-6.72,47.09-14.02,70.27-21.99
				c26.96-9.25,54.03-18.61,82.08-24.1c15.94-3.13,32.24-5.18,48.53-6.45c0.05-0.02,0.11-0.02,0.16-0.02
				c14.47-0.63,32.28-1.13,55.37-1.79c0.13,0,0.25-0.02,0.38-0.02c1.42-0.04,2.85-0.08,4.32-0.13c1.43-0.04,2.88-0.08,4.36-0.13
				c0.88-0.02,1.75-0.05,2.63-0.08c5.52-0.15,11.31-0.33,17.41-0.52c-0.38,0.1-0.75,0.19-1.15,0.29c-0.38,0.09-0.78,0.18-1.17,0.28
				c-0.13,0.02-0.26,0.06-0.39,0.1c-43.31,0.72-130.76,35.24-171.67,52.4c-0.73,0.19-1.46,0.38-2.18,0.58
				c-2.91,0.77-5.79,1.52-8.62,2.25c-2.13,0.55-4.23,1.09-6.31,1.63c-2.77,0.72-5.49,1.41-8.17,2.08c-2.01,0.5-3.98,1-5.92,1.49
				c-2.18,0.55-4.32,1.08-6.42,1.6c-0.7,0.18-1.4,0.35-2.08,0.52c-3.49,0.87-6.85,1.69-10.04,2.47c-1.21,0.29-2.41,0.58-3.57,0.87
				c-0.88,0.21-1.74,0.42-2.58,0.63c-0.92,0.23-1.81,0.44-2.69,0.65c-0.56,0.13-1.12,0.27-1.67,0.4c-0.55,0.13-1.09,0.27-1.63,0.39
				c-1.43,0.34-2.81,0.68-4.12,0.98c-0.88,0.21-1.74,0.42-2.57,0.61c-0.83,0.19-1.63,0.38-2.41,0.57c-0.39,0.09-0.78,0.18-1.15,0.27
				c-1.13,0.27-2.18,0.52-3.18,0.75c-0.34,0.08-0.67,0.15-0.99,0.23c-0.65,0.15-1.24,0.29-1.82,0.43c-0.87,0.2-1.68,0.39-2.41,0.56
				c-0.25,0.06-0.48,0.11-0.7,0.17c-0.29,0.07-0.59,0.12-0.85,0.19c-0.22,0.05-0.43,0.1-0.63,0.14c-0.31,0.08-0.6,0.14-0.86,0.2
				c-0.16,0.03-0.32,0.08-0.46,0.11c-0.29,0.07-0.55,0.13-0.77,0.18c-0.11,0.02-0.2,0.04-0.29,0.07c-0.19,0.04-0.34,0.08-0.45,0.1
				c-0.06,0.02-0.11,0.03-0.14,0.03c-0.08,0.02-0.12,0.03-0.12,0.03c-2.04,0.42-4.09,0.83-6.13,1.23
				c-43.8,8.85-87.72,17.19-131.84,24.33c-26.65,4.31-53.47,7.76-80.43,9.61c-5.01,0.34-10.04,0.61-15.05,0.81
				c-22.06,0.88-44.14,0.58-66.23,0.73h-0.09l-33.6,0.23c0,0,61.59-5.58,144.58-30.09c32.79-11.88,64.71-25.72,96.35-40.2l2.99-1.39
				h0.01c26.58-10.45,66.54-25.55,110.87-40.16c2.09-0.67,4.18-1.34,6.29-1.98c0.07-0.04,0.15-0.08,0.23-0.08
				c18.11-5.84,36.29-11.38,54.64-16.49c8.2-2.31,16.43-4.5,24.67-6.62c1.63-0.43,3.28-0.85,4.9-1.25
				c3.45-0.88,6.89-1.73,10.34-2.56c83.66-20.14,169.09-33.45,255.28-34.58c5.69-0.08,11.4-0.11,17.11-0.08
				c0.12,0.02,0.22,0.02,0.34,0c75.12-0.48,152.34,8.3,222.65,36.27c32.73,13.02,64.18,30.52,91.32,53.25
				c0.76,0.63,1.49,1.26,2.22,1.89l9.7,8.7C2199.26,820.69,2200.83,822.21,2202.37,823.75z"/>
			<linearGradient id="SVGID_27_" gradientUnits="userSpaceOnUse" x1="1418.4429" y1="698.0261" x2="2185.593" y2="890.5838">
				<stop  offset="0.4341" style="stop-color:#256AAA"/>
				<stop  offset="0.6754" style="stop-color:#005CC4"/>
				<stop  offset="1" style="stop-color:#256AAA"/>
			</linearGradient>
			<path class="st28" d="M2084.9,737.74c-64.61-27.44-135.22-37.01-204.4-37.44c-0.13,0.01-0.27,0.01-0.41,0
				c-5.46-0.03-10.9,0-16.35,0.07c-80.65,1.18-160.55,14.9-238.81,35.7c-2.23,0.6-4.47,1.2-6.68,1.82
				c-34.11,9.54-79.42,25.42-122.61,41.59c-11.71,4.37-23.22,8.77-34.36,13.05c-0.1,0.04-0.21,0.08-0.31,0.14
				c-0.89,0.33-1.76,0.67-2.64,1.02c0,0-0.06,0.03-0.18,0.07c-0.11,0.06-0.28,0.13-0.52,0.21c-0.11,0.06-0.24,0.11-0.38,0.17
				c-0.03,0-0.06,0.01-0.09,0.03c-5.99,2.41-34.04,13.68-63.76,25.84l-0.06,0.03l-6.23,2.88c26.58-10.45,66.54-25.55,110.88-40.17
				c2.09-0.67,4.17-1.34,6.29-1.98c0.07-0.04,0.16-0.07,0.24-0.08c18.1-5.84,36.29-11.38,54.64-16.49
				c8.19-2.31,16.42-4.51,24.67-6.62c1.63-0.43,3.28-0.85,4.9-1.25c3.45-0.88,6.88-1.73,10.35-2.56
				c83.65-20.15,169.08-33.45,255.28-34.58c5.69-0.08,11.4-0.11,17.1-0.08c0.11,0.01,0.23,0.01,0.34,0
				c75.12-0.49,152.35,8.29,222.65,36.27c32.74,13.02,64.18,30.51,91.33,53.25c0.75,0.63,1.49,1.25,2.21,1.89l9.69,8.7
				c1.59,1.49,3.17,3.01,4.7,4.55l0.07-0.28C2171.06,784.43,2129.2,756.56,2084.9,737.74z"/>
		</g>
		<linearGradient id="SVGID_28_" gradientUnits="userSpaceOnUse" x1="1595.5803" y1="799.2554" x2="1595.776" y2="799.3045">
			<stop  offset="0.4743" style="stop-color:#256AAA"/>
			<stop  offset="0.6754" style="stop-color:#56CCFF"/>
			<stop  offset="1" style="stop-color:#256AAA"/>
		</linearGradient>
		<path class="st29" d="M1595.8,799.2c-0.09,0.05-0.2,0.09-0.31,0.14c0.05-0.02,0.08-0.05,0.13-0.07
			C1595.68,799.25,1595.75,799.23,1595.8,799.2z"/>
		<linearGradient id="SVGID_29_" gradientUnits="userSpaceOnUse" x1="1595.9216" y1="799.0911" x2="1596.1926" y2="799.1591">
			<stop  offset="0.4743" style="stop-color:#256AAA"/>
			<stop  offset="0.6754" style="stop-color:#56CCFF"/>
			<stop  offset="1" style="stop-color:#256AAA"/>
		</linearGradient>
		<path class="st30" d="M1596.23,799.03c-0.09,0.05-0.23,0.11-0.43,0.18C1595.94,799.14,1596.09,799.09,1596.23,799.03z"/>
	</g>
</g>
</svg>
